<svg xmlns="http://www.w3.org/2000/svg" xmlns:xlink="http://www.w3.org/1999/xlink" width="500" zoomAndPan="magnify" viewBox="0 0 375 374.999991" height="500" preserveAspectRatio="xMidYMid meet" version="1.0"><defs><clipPath id="6f8a424bcc"><path d="M 137.105469 103.808594 L 238 103.808594 L 238 203.695312 L 137.105469 203.695312 Z M 137.105469 103.808594 " clip-rule="nonzero"/></clipPath><clipPath id="7fb180e7a6"><path d="M 154.355469 103.808594 L 220.644531 103.808594 C 225.21875 103.808594 229.605469 105.628906 232.839844 108.863281 C 236.078125 112.097656 237.894531 116.484375 237.894531 121.058594 L 237.894531 186.445312 C 237.894531 191.023438 236.078125 195.410156 232.839844 198.644531 C 229.605469 201.878906 225.21875 203.695312 220.644531 203.695312 L 154.355469 203.695312 C 149.78125 203.695312 145.394531 201.878906 142.160156 198.644531 C 138.921875 195.410156 137.105469 191.023438 137.105469 186.445312 L 137.105469 121.058594 C 137.105469 116.484375 138.921875 112.097656 142.160156 108.863281 C 145.394531 105.628906 149.78125 103.808594 154.355469 103.808594 Z M 154.355469 103.808594 " clip-rule="nonzero"/></clipPath><clipPath id="59cacc783f"><path d="M 185 123 L 230.890625 123 L 230.890625 158 L 185 158 Z M 185 123 " clip-rule="nonzero"/></clipPath><clipPath id="ddf70f1d1d"><path d="M 144.101562 150 L 202 150 L 202 187.035156 L 144.101562 187.035156 Z M 144.101562 150 " clip-rule="nonzero"/></clipPath></defs><g clip-path="url(#6f8a424bcc)"><g clip-path="url(#7fb180e7a6)"><path fill="#42554f" d="M 137.105469 103.808594 L 237.773438 103.808594 L 237.773438 203.695312 L 137.105469 203.695312 Z M 137.105469 103.808594 " fill-opacity="1" fill-rule="nonzero"/></g></g><g clip-path="url(#59cacc783f)"><path fill="#c1e973" d="M 192.101562 148.453125 C 191.363281 147.375 198.441406 141.59375 201.882812 139.289062 C 205.328125 136.980469 207.09375 132.03125 204.046875 129.019531 C 201.003906 126.019531 193.980469 126.457031 188.601562 129.738281 L 186.792969 130.75 C 186.410156 131.039062 185.859375 130.960938 185.582031 130.578125 C 185.433594 130.382812 185.378906 130.140625 185.414062 129.910156 C 185.421875 129.90625 185.421875 129.894531 185.425781 129.882812 C 185.425781 129.882812 185.425781 129.882812 185.425781 129.878906 C 185.464844 129.675781 185.527344 129.53125 185.707031 129.398438 C 189.445312 125.496094 194.828125 124.324219 194.828125 124.324219 C 216.570312 120.324219 213.726562 142.242188 213.824219 144.386719 C 213.925781 146.527344 213.949219 151.222656 217.003906 153.351562 C 220.054688 155.464844 229.914062 152.074219 229.914062 152.074219 C 230.367188 151.910156 230.828125 152.167969 230.984375 152.613281 C 231.09375 152.921875 231.027344 153.238281 230.832031 153.472656 C 230.828125 153.480469 230.816406 153.484375 230.816406 153.488281 C 230.800781 153.5 230.78125 153.523438 230.761719 153.542969 L 230.753906 153.542969 C 230.691406 153.605469 230.625 153.648438 230.546875 153.679688 C 230.523438 153.691406 230.496094 153.707031 230.464844 153.71875 C 229.109375 154.371094 220.527344 158.394531 216.492188 157.460938 C 212.097656 156.445312 208.394531 149.433594 201.882812 148.75 C 195.878906 148.117188 192.722656 149.367188 192.101562 148.449219 Z M 192.101562 148.453125 " fill-opacity="1" fill-rule="nonzero"/></g><g clip-path="url(#ddf70f1d1d)"><path fill="#c1e973" d="M 144.25 185.554688 C 144.265625 185.539062 144.28125 185.53125 144.300781 185.519531 C 145.492188 184.558594 168.90625 166.339844 179.738281 157.050781 C 191.140625 147.277344 201.378906 150.890625 201.378906 150.890625 C 201.378906 150.890625 203.191406 151.652344 199.519531 154.128906 C 195.761719 156.664062 197.78125 164.792969 198.664062 168.183594 C 199.53125 171.570312 201.601562 179.082031 179.570312 183.792969 C 179.511719 183.804688 179.441406 183.820312 179.375 183.832031 C 179.339844 183.839844 179.3125 183.839844 179.28125 183.839844 C 178.777344 183.835938 178.371094 183.425781 178.378906 182.921875 C 178.382812 182.527344 178.640625 182.1875 179 182.074219 C 179.039062 182.050781 179.078125 182.046875 179.117188 182.039062 C 180.4375 181.605469 192.546875 177.550781 192.753906 173.199219 C 192.929688 169.425781 189.769531 163.789062 188.621094 161.878906 C 188.402344 161.511719 187.929688 161.394531 187.558594 161.613281 L 145.308594 187.03125 C 145.296875 187.039062 145.28125 187.054688 145.265625 187.058594 C 145.125 187.136719 144.96875 187.1875 144.792969 187.1875 C 144.292969 187.183594 143.894531 186.769531 143.898438 186.269531 C 143.898438 185.980469 144.035156 185.722656 144.25 185.554688 Z M 144.25 185.554688 " fill-opacity="1" fill-rule="nonzero"/></g><path fill="#c1e973" d="M 217.90625 144.523438 C 216.683594 144.289062 215.238281 140.21875 215.96875 136.761719 C 216.414062 134.65625 217.625 132.085938 220.351562 132.605469 C 223.011719 133.113281 223.09375 136.277344 222.691406 138.289062 C 221.992188 141.8125 219.164062 144.765625 217.90625 144.523438 Z M 217.90625 144.523438 " fill-opacity="1" fill-rule="nonzero"/></svg>